# xmcd
#
# Track frame offsets:
#	150
#	16889
#	32115
#	72943
#	86649
#	123633
#	146332
#	170678
#	198421
#
# Disc length: 3079 seconds
#
# Revision: 2
# Processed by: cddbd v1.5.1PL2 Copyright (c) Steve Scherf et al.
# Submitted via: EasyCDDAExtractor 8.0.2.1
#
DISCID=7b0c0509
DTITLE=Dio - Guildhall Portsmouth 10-12-87 Disc 2
DYEAR=1987
DGENRE=Hard Rock
TTITLE0=Man On The Silver Mountain
TTITLE1=All The Fools Sailed Away
TTITLE2=Keyboard Solo - Jamming
TTITLE3=All The Fools Sailed Away
TTITLE4=Rock and Roll Children - Long Live Rock and Roll - Rock and Roll Children Re
TTITLE4=prise
TTITLE5=Night People
TTITLE6=Rainbow In The Dark
TTITLE7=We Rock
TTITLE8=Don't Talk To Strangers
EXTD=
EXTT0=
EXTT1=
EXTT2=
EXTT3=
EXTT4=
EXTT5=
EXTT6=
EXTT7=
EXTT8=
PLAYORDER=
